<svg width="226" height="226" viewBox="0 0 226 226" fill="none" xmlns="http://www.w3.org/2000/svg">
<path d="M106.325 3.38041C110.384 1.26235 115.221 1.26235 119.28 3.38041L150.123 19.4769C150.854 19.8584 151.617 20.1746 152.404 20.4218L185.595 30.8492C189.963 32.2213 193.383 35.642 194.756 40.0095L205.183 73.2007C205.43 73.9875 205.746 74.7509 206.128 75.482L222.224 106.325C224.342 110.384 224.342 115.221 222.224 119.28L206.128 150.123C205.746 150.854 205.43 151.617 205.183 152.404L194.756 185.595C193.383 189.963 189.963 193.383 185.595 194.756L152.404 205.183C151.617 205.43 150.854 205.746 150.123 206.128L119.28 222.224C115.221 224.342 110.384 224.342 106.325 222.224L75.482 206.128C74.7509 205.746 73.9875 205.43 73.2007 205.183L40.0095 194.756C35.642 193.383 32.2213 189.963 30.8492 185.595L20.4218 152.404C20.1746 151.617 19.8584 150.854 19.4769 150.123L3.38041 119.28C1.26235 115.221 1.26235 110.384 3.38041 106.325L19.4769 75.482C19.8584 74.7509 20.1746 73.9875 20.4218 73.2007L30.8492 40.0095C32.2213 35.642 35.642 32.2213 40.0095 30.8492L73.2007 20.4218C73.9875 20.1746 74.7509 19.8584 75.482 19.4769L106.325 3.38041Z" fill="#E6DEFF"/>
<g clip-path="url(#clip0_80_12566)">
<path d="M57 164C51.48 164 47 168.48 47 174C47 179.52 51.48 184 57 184C62.52 184 67 179.52 67 174C67 168.48 62.52 164 57 164ZM57 182C52.58 182 49 178.42 49 174C49 169.58 52.58 166 57 166C61.42 166 65 169.58 65 174C65 178.42 61.42 182 57 182Z" fill="#1C1149"/>
<path d="M57 179C59.7614 179 62 176.761 62 174C62 171.239 59.7614 169 57 169C54.2386 169 52 171.239 52 174C52 176.761 54.2386 179 57 179Z" fill="#1C1149"/>
</g>
<path d="M81.792 119.648C81.792 121.013 81.1947 122.165 80 123.104C78.8053 124.043 77.3013 124.512 75.488 124.512C73.9093 124.512 72.5227 124.107 71.328 123.296C70.1333 122.464 69.28 121.376 68.768 120.032L71.392 118.912C71.776 119.851 72.3307 120.587 73.056 121.12C73.8027 121.632 74.6133 121.888 75.488 121.888C76.4267 121.888 77.2053 121.685 77.824 121.28C78.464 120.875 78.784 120.395 78.784 119.84C78.784 118.837 78.016 118.101 76.48 117.632L73.792 116.96C70.7413 116.192 69.216 114.72 69.216 112.544C69.216 111.115 69.792 109.973 70.944 109.12C72.1173 108.245 73.6107 107.808 75.424 107.808C76.8107 107.808 78.0587 108.139 79.168 108.8C80.2987 109.461 81.088 110.347 81.536 111.456L78.912 112.544C78.6133 111.883 78.1227 111.371 77.44 111.008C76.7787 110.624 76.032 110.432 75.2 110.432C74.432 110.432 73.7387 110.624 73.12 111.008C72.5227 111.392 72.224 111.861 72.224 112.416C72.224 113.312 73.0667 113.952 74.752 114.336L77.12 114.944C80.2347 115.712 81.792 117.28 81.792 119.648ZM90.5908 124.512C88.2868 124.512 86.3881 123.723 84.8948 122.144C83.4014 120.565 82.6547 118.571 82.6547 116.16C82.6547 113.771 83.3801 111.787 84.8307 110.208C86.2814 108.608 88.1374 107.808 90.3988 107.808C92.7241 107.808 94.5694 108.565 95.9348 110.08C97.3214 111.573 98.0148 113.675 98.0148 116.384L97.9828 116.704H85.6628C85.7054 118.24 86.2174 119.477 87.1988 120.416C88.1801 121.355 89.3534 121.824 90.7188 121.824C92.5961 121.824 94.0681 120.885 95.1348 119.008L97.7587 120.288C97.0548 121.611 96.0734 122.645 94.8148 123.392C93.5774 124.139 92.1694 124.512 90.5908 124.512ZM85.8868 114.272H94.8788C94.7934 113.184 94.3454 112.288 93.5348 111.584C92.7454 110.859 91.6788 110.496 90.3348 110.496C89.2254 110.496 88.2654 110.837 87.4548 111.52C86.6654 112.203 86.1428 113.12 85.8868 114.272ZM106.943 124.512C104.639 124.512 102.741 123.723 101.247 122.144C99.7539 120.565 99.0072 118.571 99.0072 116.16C99.0072 113.771 99.7326 111.787 101.183 110.208C102.634 108.608 104.49 107.808 106.751 107.808C109.077 107.808 110.922 108.565 112.287 110.08C113.674 111.573 114.367 113.675 114.367 116.384L114.335 116.704H102.015C102.058 118.24 102.57 119.477 103.551 120.416C104.533 121.355 105.706 121.824 107.071 121.824C108.949 121.824 110.421 120.885 111.487 119.008L114.111 120.288C113.407 121.611 112.426 122.645 111.167 123.392C109.93 124.139 108.522 124.512 106.943 124.512ZM102.239 114.272H111.231C111.146 113.184 110.698 112.288 109.887 111.584C109.098 110.859 108.031 110.496 106.687 110.496C105.578 110.496 104.618 110.837 103.807 111.52C103.018 112.203 102.495 113.12 102.239 114.272ZM129.891 124H126.339L121.443 116.608L119.043 118.976V124H116.099V101.088H119.043V115.2L125.827 108.32H129.603V108.448L123.491 114.528L129.891 123.872V124ZM137.18 124.512C134.876 124.512 132.977 123.723 131.484 122.144C129.99 120.565 129.243 118.571 129.243 116.16C129.243 113.771 129.969 111.787 131.419 110.208C132.87 108.608 134.726 107.808 136.988 107.808C139.313 107.808 141.158 108.565 142.524 110.08C143.91 111.573 144.604 113.675 144.604 116.384L144.572 116.704H132.252C132.294 118.24 132.806 119.477 133.787 120.416C134.769 121.355 135.942 121.824 137.307 121.824C139.185 121.824 140.657 120.885 141.724 119.008L144.347 120.288C143.644 121.611 142.662 122.645 141.404 123.392C140.166 124.139 138.758 124.512 137.18 124.512ZM132.476 114.272H141.468C141.382 113.184 140.934 112.288 140.124 111.584C139.334 110.859 138.268 110.496 136.924 110.496C135.814 110.496 134.854 110.837 134.043 111.52C133.254 112.203 132.731 113.12 132.476 114.272ZM149.28 124H146.336V108.32H149.152V110.88H149.28C149.578 110.048 150.186 109.344 151.104 108.768C152.042 108.171 152.96 107.872 153.856 107.872C154.709 107.872 155.434 108 156.032 108.256L155.136 111.104C154.773 110.955 154.197 110.88 153.408 110.88C152.298 110.88 151.328 111.328 150.496 112.224C149.685 113.12 149.28 114.165 149.28 115.36V124Z" fill="#1C1149"/>
<defs>
<clipPath id="clip0_80_12566">
<rect x="37" y="154" width="40" height="40" rx="20" fill="white"/>
</clipPath>
</defs>
</svg>
