<svg width="186" height="186" viewBox="0 0 186 186" fill="none" xmlns="http://www.w3.org/2000/svg">
<path d="M86.2763 3.38041C90.3348 1.26235 95.1725 1.26235 99.2309 3.38041L123.246 15.9133C123.977 16.2948 124.74 16.611 125.527 16.8582L151.37 24.9771C155.737 26.3492 159.158 29.7699 160.53 34.1374L168.649 59.9804C168.896 60.7671 169.212 61.5305 169.594 62.2616L182.127 86.2763C184.245 90.3348 184.245 95.1725 182.127 99.231L169.594 123.246C169.212 123.977 168.896 124.74 168.649 125.527L160.53 151.37C159.158 155.737 155.737 159.158 151.37 160.53L125.527 168.649C124.74 168.896 123.977 169.212 123.246 169.594L99.2309 182.127C95.1725 184.245 90.3348 184.245 86.2763 182.127L62.2616 169.594C61.5305 169.212 60.7671 168.896 59.9804 168.649L34.1374 160.53C29.7699 159.158 26.3491 155.737 24.9771 151.37L16.8582 125.527C16.611 124.74 16.2948 123.977 15.9133 123.246L3.38041 99.2309C1.26235 95.1725 1.26235 90.3348 3.38041 86.2763L15.9133 62.2616C16.2948 61.5305 16.611 60.7671 16.8582 59.9804L24.9771 34.1374C26.3492 29.7699 29.7699 26.3491 34.1374 24.9771L59.9804 16.8582C60.7671 16.611 61.5305 16.2948 62.2616 15.9133L86.2763 3.38041Z" fill="#E6DEFF"/>
<g clip-path="url(#clip0_80_12273)">
<path d="M47 129C41.48 129 37 133.48 37 139C37 144.52 41.48 149 47 149C52.52 149 57 144.52 57 139C57 133.48 52.52 129 47 129ZM47 147C42.58 147 39 143.42 39 139C39 134.58 42.58 131 47 131C51.42 131 55 134.58 55 139C55 143.42 51.42 147 47 147Z" fill="#1C1149"/>
<path d="M47 144C49.7614 144 52 141.761 52 139C52 136.239 49.7614 134 47 134C44.2386 134 42 136.239 42 139C42 141.761 44.2386 144 47 144Z" fill="#1C1149"/>
</g>
<path d="M74.632 87.384C72.888 87.384 71.44 86.792 70.288 85.608C69.152 84.392 68.584 82.896 68.584 81.12C68.584 79.312 69.152 77.816 70.288 76.632C71.44 75.448 72.888 74.856 74.632 74.856C75.832 74.856 76.88 75.16 77.776 75.768C78.672 76.36 79.344 77.184 79.792 78.24L77.776 79.08C77.152 77.608 76.056 76.872 74.488 76.872C73.48 76.872 72.608 77.28 71.872 78.096C71.152 78.912 70.792 79.92 70.792 81.12C70.792 82.32 71.152 83.328 71.872 84.144C72.608 84.96 73.48 85.368 74.488 85.368C76.104 85.368 77.24 84.632 77.896 83.16L79.864 84C79.432 85.056 78.752 85.888 77.824 86.496C76.912 87.088 75.848 87.384 74.632 87.384ZM80.2859 81.12C80.2859 79.312 80.8539 77.816 81.9899 76.632C83.1419 75.448 84.5899 74.856 86.3339 74.856C88.0779 74.856 89.5179 75.448 90.6539 76.632C91.8059 77.816 92.3819 79.312 92.3819 81.12C92.3819 82.944 91.8059 84.44 90.6539 85.608C89.5179 86.792 88.0779 87.384 86.3339 87.384C84.5899 87.384 83.1419 86.792 81.9899 85.608C80.8539 84.424 80.2859 82.928 80.2859 81.12ZM82.4939 81.12C82.4939 82.384 82.8619 83.408 83.5979 84.192C84.3339 84.976 85.2459 85.368 86.3339 85.368C87.4219 85.368 88.3339 84.976 89.0699 84.192C89.8059 83.408 90.1739 82.384 90.1739 81.12C90.1739 79.872 89.8059 78.856 89.0699 78.072C88.3179 77.272 87.4059 76.872 86.3339 76.872C85.2619 76.872 84.3499 77.272 83.5979 78.072C82.8619 78.856 82.4939 79.872 82.4939 81.12ZM99.3104 85.368C100.366 85.368 101.254 84.968 101.974 84.168C102.694 83.384 103.054 82.368 103.054 81.12C103.054 79.888 102.694 78.872 101.974 78.072C101.254 77.272 100.366 76.872 99.3104 76.872C98.2384 76.872 97.3424 77.272 96.6224 78.072C95.9184 78.872 95.5664 79.888 95.5664 81.12C95.5664 82.368 95.9184 83.392 96.6224 84.192C97.3424 84.976 98.2384 85.368 99.3104 85.368ZM99.6704 87.384C98.8064 87.384 98.0144 87.2 97.2944 86.832C96.5904 86.464 96.0464 85.976 95.6624 85.368H95.5664L95.6624 87V92.184H93.4544V75.24H95.5664V76.872H95.6624C96.0464 76.264 96.5904 75.776 97.2944 75.408C98.0144 75.04 98.8064 74.856 99.6704 74.856C101.222 74.856 102.534 75.464 103.606 76.68C104.71 77.912 105.262 79.392 105.262 81.12C105.262 82.864 104.71 84.344 103.606 85.56C102.534 86.776 101.222 87.384 99.6704 87.384ZM111.845 87.384C110.117 87.384 108.693 86.792 107.573 85.608C106.453 84.424 105.893 82.928 105.893 81.12C105.893 79.328 106.437 77.84 107.525 76.656C108.613 75.456 110.005 74.856 111.701 74.856C113.445 74.856 114.829 75.424 115.853 76.56C116.893 77.68 117.413 79.256 117.413 81.288L117.389 81.528H108.149C108.181 82.68 108.565 83.608 109.301 84.312C110.037 85.016 110.917 85.368 111.941 85.368C113.349 85.368 114.453 84.664 115.253 83.256L117.221 84.216C116.693 85.208 115.957 85.984 115.013 86.544C114.085 87.104 113.029 87.384 111.845 87.384ZM108.317 79.704H115.061C114.997 78.888 114.661 78.216 114.053 77.688C113.461 77.144 112.661 76.872 111.653 76.872C110.821 76.872 110.101 77.128 109.493 77.64C108.901 78.152 108.509 78.84 108.317 79.704ZM52.268 103.24L48.476 115H46.22L43.292 105.976L40.388 115H38.156L34.364 103.24H36.668L39.284 112.12H39.308L42.212 103.24H44.492L47.396 112.12H47.42L50.012 103.24H52.268ZM55.8417 99.184C55.8417 99.616 55.6897 99.984 55.3857 100.288C55.0817 100.592 54.7137 100.744 54.2817 100.744C53.8497 100.744 53.4817 100.592 53.1777 100.288C52.8737 99.984 52.7217 99.616 52.7217 99.184C52.7217 98.752 52.8737 98.384 53.1777 98.08C53.4817 97.776 53.8497 97.624 54.2817 97.624C54.7137 97.624 55.0817 97.776 55.3857 98.08C55.6897 98.384 55.8417 98.752 55.8417 99.184ZM55.3857 103.24V115H53.1777V103.24H55.3857ZM62.078 115.192C61.118 115.192 60.318 114.896 59.678 114.304C59.054 113.712 58.734 112.888 58.718 111.832V105.256H56.654V103.24H58.718V99.64H60.926V103.24H63.806V105.256H60.926V111.112C60.926 111.896 61.078 112.432 61.382 112.72C61.686 112.992 62.03 113.128 62.414 113.128C62.59 113.128 62.758 113.112 62.918 113.08C63.094 113.032 63.254 112.976 63.398 112.912L64.094 114.88C63.518 115.088 62.846 115.192 62.078 115.192ZM65.3035 97.816H67.5115V103.24L67.4155 104.872H67.5115C67.8475 104.296 68.3595 103.816 69.0475 103.432C69.7515 103.048 70.4795 102.856 71.2315 102.856C72.6715 102.856 73.7755 103.272 74.5435 104.104C75.3275 104.92 75.7195 106.088 75.7195 107.608V115H73.5115V108.04C73.5115 105.928 72.5755 104.872 70.7035 104.872C69.8075 104.872 69.0475 105.248 68.4235 106C67.8155 106.736 67.5115 107.6 67.5115 108.592V115H65.3035V97.816ZM86.8008 115.192C85.8408 115.192 85.0408 114.896 84.4008 114.304C83.7768 113.712 83.4568 112.888 83.4408 111.832V105.256H81.3768V103.24H83.4408V99.64H85.6488V103.24H88.5288V105.256H85.6488V111.112C85.6488 111.896 85.8008 112.432 86.1048 112.72C86.4088 112.992 86.7528 113.128 87.1368 113.128C87.3128 113.128 87.4808 113.112 87.6408 113.08C87.8168 113.032 87.9768 112.976 88.1208 112.912L88.8168 114.88C88.2408 115.088 87.5688 115.192 86.8008 115.192ZM92.1172 115H89.9092V103.24H92.0212V105.16H92.1172C92.3412 104.536 92.7972 104.008 93.4852 103.576C94.1892 103.128 94.8772 102.904 95.5492 102.904C96.1892 102.904 96.7332 103 97.1812 103.192L96.5092 105.328C96.2372 105.216 95.8052 105.16 95.2132 105.16C94.3812 105.16 93.6532 105.496 93.0292 106.168C92.4212 106.84 92.1172 107.624 92.1172 108.52V115ZM99.0472 111.4C99.0472 111.976 99.2872 112.456 99.7672 112.84C100.263 113.224 100.839 113.416 101.495 113.416C102.423 113.416 103.247 113.072 103.967 112.384C104.703 111.696 105.071 110.888 105.071 109.96C104.383 109.416 103.423 109.144 102.191 109.144C101.295 109.144 100.543 109.36 99.9352 109.792C99.3432 110.224 99.0472 110.76 99.0472 111.4ZM101.903 102.856C103.535 102.856 104.823 103.296 105.767 104.176C106.711 105.04 107.183 106.232 107.183 107.752V115H105.071V113.368H104.975C104.063 114.712 102.847 115.384 101.327 115.384C100.031 115.384 98.9432 115 98.0632 114.232C97.1992 113.464 96.7672 112.504 96.7672 111.352C96.7672 110.136 97.2232 109.168 98.1352 108.448C99.0632 107.728 100.295 107.368 101.831 107.368C103.143 107.368 104.223 107.608 105.071 108.088V107.584C105.071 106.816 104.767 106.168 104.159 105.64C103.551 105.096 102.839 104.824 102.023 104.824C100.791 104.824 99.8152 105.344 99.0952 106.384L97.1512 105.16C98.2232 103.624 99.8072 102.856 101.903 102.856ZM119.274 115H117.162V113.368H117.066C116.73 113.944 116.21 114.424 115.506 114.808C114.818 115.192 114.098 115.384 113.346 115.384C111.906 115.384 110.794 114.976 110.01 114.16C109.242 113.328 108.858 112.152 108.858 110.632V103.24H111.066V110.488C111.114 112.408 112.082 113.368 113.97 113.368C114.85 113.368 115.586 113.016 116.178 112.312C116.77 111.592 117.066 110.736 117.066 109.744V103.24H119.274V115ZM123.449 115H121.241V103.24H123.353V104.872H123.449C123.785 104.296 124.297 103.816 124.985 103.432C125.689 103.048 126.385 102.856 127.073 102.856C127.937 102.856 128.697 103.056 129.353 103.456C130.009 103.856 130.489 104.408 130.793 105.112C131.769 103.608 133.121 102.856 134.849 102.856C136.209 102.856 137.257 103.272 137.993 104.104C138.729 104.936 139.097 106.12 139.097 107.656V115H136.889V107.992C136.889 106.888 136.689 106.096 136.289 105.616C135.889 105.12 135.217 104.872 134.273 104.872C133.425 104.872 132.713 105.232 132.137 105.952C131.561 106.672 131.273 107.52 131.273 108.496V115H129.065V107.992C129.065 106.888 128.865 106.096 128.465 105.616C128.065 105.12 127.393 104.872 126.449 104.872C125.601 104.872 124.889 105.232 124.313 105.952C123.737 106.672 123.449 107.52 123.449 108.496V115ZM142.45 111.4C142.45 111.976 142.69 112.456 143.17 112.84C143.666 113.224 144.242 113.416 144.898 113.416C145.826 113.416 146.65 113.072 147.37 112.384C148.106 111.696 148.474 110.888 148.474 109.96C147.786 109.416 146.826 109.144 145.594 109.144C144.698 109.144 143.946 109.36 143.338 109.792C142.746 110.224 142.45 110.76 142.45 111.4ZM145.306 102.856C146.938 102.856 148.226 103.296 149.17 104.176C150.114 105.04 150.586 106.232 150.586 107.752V115H148.474V113.368H148.378C147.466 114.712 146.25 115.384 144.73 115.384C143.434 115.384 142.346 115 141.466 114.232C140.602 113.464 140.17 112.504 140.17 111.352C140.17 110.136 140.626 109.168 141.538 108.448C142.466 107.728 143.698 107.368 145.234 107.368C146.546 107.368 147.626 107.608 148.474 108.088V107.584C148.474 106.816 148.17 106.168 147.562 105.64C146.954 105.096 146.242 104.824 145.426 104.824C144.194 104.824 143.218 105.344 142.498 106.384L140.554 105.16C141.626 103.624 143.21 102.856 145.306 102.856Z" fill="#1C1149"/>
<defs>
<clipPath id="clip0_80_12273">
<rect x="27" y="119" width="40" height="40" rx="20" fill="white"/>
</clipPath>
</defs>
</svg>
