<svg width="186" height="186" viewBox="0 0 186 186" fill="none" xmlns="http://www.w3.org/2000/svg">
<path d="M161.884 23.6234C193.382 55.1213 193.382 106.189 161.884 137.687L137.687 161.884C106.189 193.382 55.1213 193.382 23.6234 161.884C-7.87447 130.386 -7.87447 79.3179 23.6234 47.82L47.82 23.6234C79.3179 -7.87447 130.386 -7.87447 161.884 23.6234Z" fill="#605690"/>
<g clip-path="url(#clip0_80_12270)">
<path d="M143 45C137.48 45 133 49.48 133 55C133 60.52 137.48 65 143 65C148.52 65 153 60.52 153 55C153 49.48 148.52 45 143 45ZM143 63C138.58 63 135 59.42 135 55C135 50.58 138.58 47 143 47C147.42 47 151 50.58 151 55C151 59.42 147.42 63 143 63Z" fill="#E6DEFF"/>
<path d="M143 60C145.761 60 148 57.7614 148 55C148 52.2386 145.761 50 143 50C140.239 50 138 52.2386 138 55C138 57.7614 140.239 60 143 60Z" fill="#E6DEFF"/>
</g>
<path d="M73.5893 83.736C73.5893 84.76 73.1413 85.624 72.2453 86.328C71.3493 87.032 70.2213 87.384 68.8613 87.384C67.6773 87.384 66.6373 87.08 65.7413 86.472C64.8453 85.848 64.2053 85.032 63.8213 84.024L65.7893 83.184C66.0773 83.888 66.4933 84.44 67.0373 84.84C67.5973 85.224 68.2053 85.416 68.8613 85.416C69.5653 85.416 70.1493 85.264 70.6133 84.96C71.0933 84.656 71.3333 84.296 71.3333 83.88C71.3333 83.128 70.7573 82.576 69.6053 82.224L67.5893 81.72C65.3013 81.144 64.1573 80.04 64.1573 78.408C64.1573 77.336 64.5893 76.48 65.4533 75.84C66.3333 75.184 67.4533 74.856 68.8133 74.856C69.8533 74.856 70.7893 75.104 71.6213 75.6C72.4693 76.096 73.0613 76.76 73.3973 77.592L71.4293 78.408C71.2053 77.912 70.8373 77.528 70.3253 77.256C69.8293 76.968 69.2693 76.824 68.6453 76.824C68.0693 76.824 67.5493 76.968 67.0853 77.256C66.6373 77.544 66.4133 77.896 66.4133 78.312C66.4133 78.984 67.0453 79.464 68.3093 79.752L70.0853 80.208C72.4213 80.784 73.5893 81.96 73.5893 83.736ZM79.33 87.192C78.37 87.192 77.57 86.896 76.93 86.304C76.306 85.712 75.986 84.888 75.97 83.832V77.256H73.906V75.24H75.97V71.64H78.178V75.24H81.058V77.256H78.178V83.112C78.178 83.896 78.33 84.432 78.634 84.72C78.938 84.992 79.282 85.128 79.666 85.128C79.842 85.128 80.01 85.112 80.17 85.08C80.346 85.032 80.506 84.976 80.65 84.912L81.346 86.88C80.77 87.088 80.098 87.192 79.33 87.192ZM84.6464 87H82.4384V75.24H84.5504V77.16H84.6464C84.8704 76.536 85.3264 76.008 86.0144 75.576C86.7184 75.128 87.4064 74.904 88.0784 74.904C88.7184 74.904 89.2624 75 89.7104 75.192L89.0384 77.328C88.7664 77.216 88.3344 77.16 87.7424 77.16C86.9104 77.16 86.1824 77.496 85.5584 78.168C84.9504 78.84 84.6464 79.624 84.6464 80.52V87ZM94.9906 87.384C93.2626 87.384 91.8386 86.792 90.7186 85.608C89.5986 84.424 89.0386 82.928 89.0386 81.12C89.0386 79.328 89.5826 77.84 90.6706 76.656C91.7586 75.456 93.1506 74.856 94.8466 74.856C96.5906 74.856 97.9746 75.424 98.9986 76.56C100.039 77.68 100.559 79.256 100.559 81.288L100.535 81.528H91.2946C91.3266 82.68 91.7106 83.608 92.4466 84.312C93.1826 85.016 94.0626 85.368 95.0866 85.368C96.4946 85.368 97.5986 84.664 98.3986 83.256L100.367 84.216C99.8386 85.208 99.1026 85.984 98.1586 86.544C97.2306 87.104 96.1746 87.384 94.9906 87.384ZM91.4626 79.704H98.2066C98.1426 78.888 97.8066 78.216 97.1986 77.688C96.6066 77.144 95.8066 76.872 94.7986 76.872C93.9666 76.872 93.2466 77.128 92.6386 77.64C92.0466 78.152 91.6546 78.84 91.4626 79.704ZM110.975 83.736C110.975 84.76 110.527 85.624 109.631 86.328C108.735 87.032 107.607 87.384 106.247 87.384C105.063 87.384 104.023 87.08 103.127 86.472C102.231 85.848 101.591 85.032 101.207 84.024L103.175 83.184C103.463 83.888 103.879 84.44 104.423 84.84C104.983 85.224 105.591 85.416 106.247 85.416C106.951 85.416 107.535 85.264 107.999 84.96C108.479 84.656 108.719 84.296 108.719 83.88C108.719 83.128 108.143 82.576 106.991 82.224L104.975 81.72C102.687 81.144 101.543 80.04 101.543 78.408C101.543 77.336 101.975 76.48 102.839 75.84C103.719 75.184 104.839 74.856 106.199 74.856C107.239 74.856 108.175 75.104 109.007 75.6C109.855 76.096 110.447 76.76 110.783 77.592L108.815 78.408C108.591 77.912 108.223 77.528 107.711 77.256C107.215 76.968 106.655 76.824 106.031 76.824C105.455 76.824 104.935 76.968 104.471 77.256C104.023 77.544 103.799 77.896 103.799 78.312C103.799 78.984 104.431 79.464 105.695 79.752L107.471 80.208C109.807 80.784 110.975 81.96 110.975 83.736ZM121.177 83.736C121.177 84.76 120.729 85.624 119.833 86.328C118.937 87.032 117.809 87.384 116.449 87.384C115.265 87.384 114.225 87.08 113.329 86.472C112.433 85.848 111.793 85.032 111.409 84.024L113.377 83.184C113.665 83.888 114.081 84.44 114.625 84.84C115.185 85.224 115.793 85.416 116.449 85.416C117.153 85.416 117.737 85.264 118.201 84.96C118.681 84.656 118.921 84.296 118.921 83.88C118.921 83.128 118.345 82.576 117.193 82.224L115.177 81.72C112.889 81.144 111.745 80.04 111.745 78.408C111.745 77.336 112.177 76.48 113.041 75.84C113.921 75.184 115.041 74.856 116.401 74.856C117.441 74.856 118.377 75.104 119.209 75.6C120.057 76.096 120.649 76.76 120.985 77.592L119.017 78.408C118.793 77.912 118.425 77.528 117.913 77.256C117.417 76.968 116.857 76.824 116.233 76.824C115.657 76.824 115.137 76.968 114.673 77.256C114.225 77.544 114.001 77.896 114.001 78.312C114.001 78.984 114.633 79.464 115.897 79.752L117.673 80.208C120.009 80.784 121.177 81.96 121.177 83.736ZM48.8929 115H46.6849V103.24H48.7969V105.16H48.8929C49.1169 104.536 49.5729 104.008 50.2609 103.576C50.9649 103.128 51.6529 102.904 52.3249 102.904C52.9649 102.904 53.5089 103 53.9569 103.192L53.2849 105.328C53.0129 105.216 52.5809 105.16 51.9889 105.16C51.1569 105.16 50.4289 105.496 49.8049 106.168C49.1969 106.84 48.8929 107.624 48.8929 108.52V115ZM59.2371 115.384C57.5091 115.384 56.0851 114.792 54.9651 113.608C53.8451 112.424 53.2851 110.928 53.2851 109.12C53.2851 107.328 53.8291 105.84 54.9171 104.656C56.0051 103.456 57.3971 102.856 59.0931 102.856C60.8371 102.856 62.2211 103.424 63.2451 104.56C64.2851 105.68 64.8051 107.256 64.8051 109.288L64.7811 109.528H55.5411C55.5731 110.68 55.9571 111.608 56.6931 112.312C57.4291 113.016 58.3091 113.368 59.3331 113.368C60.7411 113.368 61.8451 112.664 62.6451 111.256L64.6131 112.216C64.0851 113.208 63.3491 113.984 62.4051 114.544C61.4771 115.104 60.4211 115.384 59.2371 115.384ZM55.7091 107.704H62.4531C62.3891 106.888 62.0531 106.216 61.4451 105.688C60.8531 105.144 60.0531 104.872 59.0451 104.872C58.2131 104.872 57.4931 105.128 56.8851 105.64C56.2931 106.152 55.9011 106.84 55.7091 107.704ZM71.5015 113.368C72.5895 113.368 73.4775 112.976 74.1655 112.192C74.8855 111.408 75.2455 110.384 75.2455 109.12C75.2455 107.888 74.8855 106.872 74.1655 106.072C73.4615 105.272 72.5735 104.872 71.5015 104.872C70.4455 104.872 69.5575 105.272 68.8375 106.072C68.1175 106.872 67.7575 107.888 67.7575 109.12C67.7575 110.368 68.1175 111.384 68.8375 112.168C69.5575 112.968 70.4455 113.368 71.5015 113.368ZM71.1415 115.384C69.6055 115.384 68.2855 114.776 67.1815 113.56C66.0935 112.328 65.5495 110.848 65.5495 109.12C65.5495 107.392 66.0935 105.912 67.1815 104.68C68.2855 103.464 69.6055 102.856 71.1415 102.856C72.0055 102.856 72.7895 103.04 73.4935 103.408C74.2135 103.776 74.7655 104.264 75.1495 104.872H75.2455L75.1495 103.24V97.816H77.3575V115H75.2455V113.368H75.1495C74.7655 113.976 74.2135 114.464 73.4935 114.832C72.7895 115.2 72.0055 115.384 71.1415 115.384ZM89.6496 115H87.5376V113.368H87.4416C87.1056 113.944 86.5856 114.424 85.8816 114.808C85.1936 115.192 84.4736 115.384 83.7216 115.384C82.2816 115.384 81.1696 114.976 80.3856 114.16C79.6176 113.328 79.2336 112.152 79.2336 110.632V103.24H81.4416V110.488C81.4896 112.408 82.4576 113.368 84.3456 113.368C85.2256 113.368 85.9616 113.016 86.5536 112.312C87.1456 111.592 87.4416 110.736 87.4416 109.744V103.24H89.6496V115ZM96.8763 115.384C95.1323 115.384 93.6843 114.792 92.5323 113.608C91.3963 112.392 90.8283 110.896 90.8283 109.12C90.8283 107.312 91.3963 105.816 92.5323 104.632C93.6843 103.448 95.1323 102.856 96.8763 102.856C98.0763 102.856 99.1243 103.16 100.02 103.768C100.916 104.36 101.588 105.184 102.036 106.24L100.02 107.08C99.3963 105.608 98.3003 104.872 96.7323 104.872C95.7243 104.872 94.8523 105.28 94.1163 106.096C93.3963 106.912 93.0363 107.92 93.0363 109.12C93.0363 110.32 93.3963 111.328 94.1163 112.144C94.8523 112.96 95.7243 113.368 96.7323 113.368C98.3483 113.368 99.4843 112.632 100.14 111.16L102.108 112C101.676 113.056 100.996 113.888 100.068 114.496C99.1563 115.088 98.0923 115.384 96.8763 115.384ZM107.858 115.192C106.898 115.192 106.098 114.896 105.458 114.304C104.834 113.712 104.514 112.888 104.498 111.832V105.256H102.434V103.24H104.498V99.64H106.706V103.24H109.586V105.256H106.706V111.112C106.706 111.896 106.858 112.432 107.162 112.72C107.466 112.992 107.81 113.128 108.194 113.128C108.37 113.128 108.538 113.112 108.698 113.08C108.874 113.032 109.034 112.976 109.178 112.912L109.874 114.88C109.298 115.088 108.626 115.192 107.858 115.192ZM113.94 99.184C113.94 99.616 113.788 99.984 113.484 100.288C113.18 100.592 112.812 100.744 112.38 100.744C111.948 100.744 111.58 100.592 111.276 100.288C110.972 99.984 110.82 99.616 110.82 99.184C110.82 98.752 110.972 98.384 111.276 98.08C111.58 97.776 111.948 97.624 112.38 97.624C112.812 97.624 113.18 97.776 113.484 98.08C113.788 98.384 113.94 98.752 113.94 99.184ZM113.484 103.24V115H111.276V103.24H113.484ZM114.848 109.12C114.848 107.312 115.416 105.816 116.552 104.632C117.704 103.448 119.152 102.856 120.896 102.856C122.64 102.856 124.08 103.448 125.216 104.632C126.368 105.816 126.944 107.312 126.944 109.12C126.944 110.944 126.368 112.44 125.216 113.608C124.08 114.792 122.64 115.384 120.896 115.384C119.152 115.384 117.704 114.792 116.552 113.608C115.416 112.424 114.848 110.928 114.848 109.12ZM117.056 109.12C117.056 110.384 117.424 111.408 118.16 112.192C118.896 112.976 119.808 113.368 120.896 113.368C121.984 113.368 122.896 112.976 123.632 112.192C124.368 111.408 124.736 110.384 124.736 109.12C124.736 107.872 124.368 106.856 123.632 106.072C122.88 105.272 121.968 104.872 120.896 104.872C119.824 104.872 118.912 105.272 118.16 106.072C117.424 106.856 117.056 107.872 117.056 109.12ZM127.995 103.24H130.107V104.872H130.203C130.539 104.296 131.051 103.816 131.739 103.432C132.443 103.048 133.171 102.856 133.923 102.856C135.363 102.856 136.467 103.272 137.235 104.104C138.019 104.92 138.411 106.088 138.411 107.608V115H136.203V107.752C136.155 105.832 135.187 104.872 133.299 104.872C132.419 104.872 131.683 105.232 131.091 105.952C130.499 106.656 130.203 107.504 130.203 108.496V115H127.995V103.24Z" fill="#E6DEFF"/>
<defs>
<clipPath id="clip0_80_12270">
<rect x="123" y="35" width="40" height="40" rx="20" fill="white"/>
</clipPath>
</defs>
</svg>
