<svg width="189" height="189" viewBox="0 0 189 189" fill="none" xmlns="http://www.w3.org/2000/svg">
<path d="M94.6048 12.3124C82.8751 12.3124 71.9328 6.80062 60.9225 2.75589C56.0698 0.973187 50.8261 0 45.355 0C20.4218 0 0.209473 20.2124 0.209473 45.1456C0.209473 50.6166 1.18266 55.8603 2.96537 60.7131C7.0101 71.7233 12.5219 82.6656 12.5219 94.3953C12.5219 106.125 7.01009 117.067 2.96537 128.078C1.18266 132.93 0.209473 138.174 0.209473 143.645C0.209473 168.578 20.4218 188.791 45.355 188.791C50.8261 188.791 56.0698 187.817 60.9225 186.035C71.9328 181.99 82.8751 176.478 94.6048 176.478C106.334 176.478 117.277 181.99 128.287 186.035C133.14 187.817 138.383 188.791 143.854 188.791C168.788 188.791 189 168.578 189 143.645C189 138.174 188.027 132.93 186.244 128.078C182.199 117.067 176.688 106.125 176.688 94.3953C176.688 82.6656 182.199 71.7233 186.244 60.713C188.027 55.8603 189 50.6166 189 45.1456C189 20.2124 168.788 0 143.854 0C138.383 0 133.14 0.973187 128.287 2.75589C117.277 6.80062 106.334 12.3124 94.6048 12.3124Z" fill="#CABEFF"/>
<g clip-path="url(#clip0_80_12563)">
<path d="M153 26C147.48 26 143 30.48 143 36C143 41.52 147.48 46 153 46C158.52 46 163 41.52 163 36C163 30.48 158.52 26 153 26ZM153 44C148.58 44 145 40.42 145 36C145 31.58 148.58 28 153 28C157.42 28 161 31.58 161 36C161 40.42 157.42 44 153 44Z" fill="#1C1149"/>
<path d="M153 41C155.761 41 158 38.7614 158 36C158 33.2386 155.761 31 153 31C150.239 31 148 33.2386 148 36C148 38.7614 150.239 41 153 41Z" fill="#1C1149"/>
</g>
<path d="M54.792 82.088H57.736V89.32L57.608 91.496H57.736C58.184 90.728 58.8667 90.088 59.784 89.576C60.7227 89.064 61.6933 88.808 62.696 88.808C64.616 88.808 66.088 89.3627 67.112 90.472C68.1573 91.56 68.68 93.1173 68.68 95.144V105H65.736V95.72C65.736 92.904 64.488 91.496 61.992 91.496C60.7973 91.496 59.784 91.9973 58.952 93C58.1413 93.9813 57.736 95.1333 57.736 96.456V105H54.792V82.088ZM78.2158 105.512C75.9118 105.512 74.0131 104.723 72.5198 103.144C71.0264 101.565 70.2798 99.5707 70.2798 97.16C70.2798 94.7707 71.0051 92.7867 72.4558 91.208C73.9064 89.608 75.7624 88.808 78.0238 88.808C80.3491 88.808 82.1944 89.5653 83.5598 91.08C84.9464 92.5733 85.6398 94.6747 85.6398 97.384L85.6078 97.704H73.2878C73.3304 99.24 73.8424 100.477 74.8238 101.416C75.8051 102.355 76.9784 102.824 78.3438 102.824C80.2211 102.824 81.6931 101.885 82.7598 100.008L85.3838 101.288C84.6798 102.611 83.6984 103.645 82.4398 104.392C81.2024 105.139 79.7944 105.512 78.2158 105.512ZM73.5118 95.272H82.5038C82.4184 94.184 81.9704 93.288 81.1598 92.584C80.3704 91.8587 79.3038 91.496 77.9598 91.496C76.8504 91.496 75.8904 91.8373 75.0798 92.52C74.2904 93.2027 73.7678 94.12 73.5118 95.272ZM90.316 82.088V105H87.372V82.088H90.316ZM100.623 102.824C102.031 102.824 103.215 102.291 104.175 101.224C105.135 100.179 105.615 98.824 105.615 97.16C105.615 95.5173 105.135 94.1627 104.175 93.096C103.215 92.0293 102.031 91.496 100.623 91.496C99.1939 91.496 97.9992 92.0293 97.0392 93.096C96.1006 94.1627 95.6312 95.5173 95.6312 97.16C95.6312 98.824 96.1006 100.189 97.0392 101.256C97.9992 102.301 99.1939 102.824 100.623 102.824ZM101.103 105.512C99.9512 105.512 98.8952 105.267 97.9352 104.776C96.9966 104.285 96.2712 103.635 95.7592 102.824H95.6312L95.7592 105V111.912H92.8152V89.32H95.6312V91.496H95.7592C96.2712 90.6853 96.9966 90.0347 97.9352 89.544C98.8952 89.0533 99.9512 88.808 101.103 88.808C103.173 88.808 104.922 89.6187 106.351 91.24C107.823 92.8827 108.559 94.856 108.559 97.16C108.559 99.4853 107.823 101.459 106.351 103.08C104.922 104.701 103.173 105.512 101.103 105.512ZM117.336 105.512C115.032 105.512 113.133 104.723 111.64 103.144C110.146 101.565 109.4 99.5707 109.4 97.16C109.4 94.7707 110.125 92.7867 111.576 91.208C113.026 89.608 114.882 88.808 117.144 88.808C119.469 88.808 121.314 89.5653 122.68 91.08C124.066 92.5733 124.76 94.6747 124.76 97.384L124.728 97.704H112.408C112.45 99.24 112.962 100.477 113.944 101.416C114.925 102.355 116.098 102.824 117.464 102.824C119.341 102.824 120.813 101.885 121.88 100.008L124.504 101.288C123.8 102.611 122.818 103.645 121.56 104.392C120.322 105.139 118.914 105.512 117.336 105.512ZM112.632 95.272H121.624C121.538 94.184 121.09 93.288 120.28 92.584C119.49 91.8587 118.424 91.496 117.08 91.496C115.97 91.496 115.01 91.8373 114.2 92.52C113.41 93.2027 112.888 94.12 112.632 95.272ZM129.436 105H126.492V89.32H129.308V91.88H129.436C129.735 91.048 130.343 90.344 131.26 89.768C132.199 89.1707 133.116 88.872 134.012 88.872C134.865 88.872 135.591 89 136.188 89.256L135.292 92.104C134.929 91.9547 134.353 91.88 133.564 91.88C132.455 91.88 131.484 92.328 130.652 93.224C129.841 94.12 129.436 95.1653 129.436 96.36V105Z" fill="#1C1149"/>
<defs>
<clipPath id="clip0_80_12563">
<rect x="133" y="16" width="40" height="40" rx="20" fill="white"/>
</clipPath>
</defs>
</svg>
