<svg width="186" height="186" viewBox="0 0 186 186" fill="none" xmlns="http://www.w3.org/2000/svg">
<path d="M93.2463 12.0983C81.7206 12.0983 70.9686 6.68235 60.1498 2.70797C55.3815 0.956262 50.229 0 44.8531 0C20.3535 0 0.492676 19.8608 0.492676 44.3604C0.492676 49.7363 1.44894 54.8888 3.20064 59.6572C7.17503 70.4759 12.591 81.2279 12.591 92.7536C12.591 104.279 7.17503 115.031 3.20064 125.85C1.44894 130.618 0.492676 135.771 0.492676 141.147C0.492676 165.646 20.3535 185.507 44.8531 185.507C50.229 185.507 55.3815 184.551 60.1498 182.799C70.9686 178.825 81.7206 173.409 93.2463 173.409C104.772 173.409 115.524 178.825 126.343 182.799C131.111 184.551 136.264 185.507 141.639 185.507C166.139 185.507 186 165.646 186 141.147C186 135.771 185.044 130.618 183.292 125.85C179.318 115.031 173.902 104.279 173.902 92.7536C173.902 81.2279 179.318 70.4759 183.292 59.6572C185.044 54.8888 186 49.7363 186 44.3604C186 19.8608 166.139 0 141.639 0C136.264 0 131.111 0.956262 126.343 2.70797C115.524 6.68235 104.772 12.0983 93.2463 12.0983Z" fill="#CABEFF"/>
<g clip-path="url(#clip0_80_12267)">
<path d="M150 26C144.48 26 140 30.48 140 36C140 41.52 144.48 46 150 46C155.52 46 160 41.52 160 36C160 30.48 155.52 26 150 26ZM150 44C145.58 44 142 40.42 142 36C142 31.58 145.58 28 150 28C154.42 28 158 31.58 158 36C158 40.42 154.42 44 150 44Z" fill="#1C1149"/>
<path d="M150 41C152.761 41 155 38.7614 155 36C155 33.2386 152.761 31 150 31C147.239 31 145 33.2386 145 36C145 38.7614 147.239 41 150 41Z" fill="#1C1149"/>
</g>
<path d="M86.3686 92.184H84.1606V87L84.2566 85.368H84.1606C83.7766 85.976 83.2246 86.464 82.5046 86.832C81.8006 87.2 81.0166 87.384 80.1526 87.384C78.6166 87.384 77.2966 86.776 76.1926 85.56C75.1046 84.328 74.5606 82.848 74.5606 81.12C74.5606 79.392 75.1046 77.912 76.1926 76.68C77.2966 75.464 78.6166 74.856 80.1526 74.856C81.0166 74.856 81.8006 75.04 82.5046 75.408C83.2246 75.776 83.7766 76.264 84.1606 76.872H84.2566V75.24H86.3686V92.184ZM80.5126 85.368C81.6006 85.368 82.4886 84.976 83.1766 84.192C83.8966 83.408 84.2566 82.384 84.2566 81.12C84.2566 79.888 83.8966 78.872 83.1766 78.072C82.4726 77.272 81.5846 76.872 80.5126 76.872C79.4566 76.872 78.5686 77.272 77.8486 78.072C77.1286 78.872 76.7686 79.888 76.7686 81.12C76.7686 82.368 77.1286 83.384 77.8486 84.168C78.5686 84.968 79.4566 85.368 80.5126 85.368ZM98.567 87H96.455V85.368H96.359C96.023 85.944 95.503 86.424 94.799 86.808C94.111 87.192 93.391 87.384 92.639 87.384C91.199 87.384 90.087 86.976 89.303 86.16C88.535 85.328 88.151 84.152 88.151 82.632V75.24H90.359V82.488C90.407 84.408 91.375 85.368 93.263 85.368C94.143 85.368 94.879 85.016 95.471 84.312C96.063 83.592 96.359 82.736 96.359 81.744V75.24H98.567V87ZM103.391 71.184C103.391 71.616 103.239 71.984 102.935 72.288C102.631 72.592 102.263 72.744 101.831 72.744C101.399 72.744 101.031 72.592 100.727 72.288C100.423 71.984 100.271 71.616 100.271 71.184C100.271 70.752 100.423 70.384 100.727 70.08C101.031 69.776 101.399 69.624 101.831 69.624C102.263 69.624 102.631 69.776 102.935 70.08C103.239 70.384 103.391 70.752 103.391 71.184ZM102.935 75.24V87H100.727V75.24H102.935ZM109.627 87.192C108.667 87.192 107.867 86.896 107.227 86.304C106.603 85.712 106.283 84.888 106.267 83.832V77.256H104.203V75.24H106.267V71.64H108.475V75.24H111.355V77.256H108.475V83.112C108.475 83.896 108.627 84.432 108.931 84.72C109.235 84.992 109.579 85.128 109.963 85.128C110.139 85.128 110.307 85.112 110.467 85.08C110.643 85.032 110.803 84.976 110.947 84.912L111.643 86.88C111.067 87.088 110.395 87.192 109.627 87.192ZM50.2343 111.4C50.2343 111.976 50.4743 112.456 50.9543 112.84C51.4503 113.224 52.0263 113.416 52.6823 113.416C53.6103 113.416 54.4343 113.072 55.1543 112.384C55.8903 111.696 56.2583 110.888 56.2583 109.96C55.5703 109.416 54.6103 109.144 53.3783 109.144C52.4823 109.144 51.7303 109.36 51.1223 109.792C50.5303 110.224 50.2343 110.76 50.2343 111.4ZM53.0903 102.856C54.7223 102.856 56.0103 103.296 56.9543 104.176C57.8983 105.04 58.3703 106.232 58.3703 107.752V115H56.2583V113.368H56.1623C55.2503 114.712 54.0343 115.384 52.5143 115.384C51.2183 115.384 50.1303 115 49.2503 114.232C48.3863 113.464 47.9543 112.504 47.9543 111.352C47.9543 110.136 48.4103 109.168 49.3223 108.448C50.2503 107.728 51.4823 107.368 53.0183 107.368C54.3303 107.368 55.4103 107.608 56.2583 108.088V107.584C56.2583 106.816 55.9543 106.168 55.3463 105.64C54.7383 105.096 54.0263 104.824 53.2103 104.824C51.9783 104.824 51.0023 105.344 50.2823 106.384L48.3383 105.16C49.4103 103.624 50.9943 102.856 53.0903 102.856ZM65.3035 113.368C66.3915 113.368 67.2795 112.976 67.9675 112.192C68.6875 111.408 69.0475 110.384 69.0475 109.12C69.0475 107.888 68.6875 106.872 67.9675 106.072C67.2635 105.272 66.3755 104.872 65.3035 104.872C64.2475 104.872 63.3595 105.272 62.6395 106.072C61.9195 106.872 61.5595 107.888 61.5595 109.12C61.5595 110.368 61.9195 111.384 62.6395 112.168C63.3595 112.968 64.2475 113.368 65.3035 113.368ZM64.9435 115.384C63.4075 115.384 62.0875 114.776 60.9835 113.56C59.8955 112.328 59.3515 110.848 59.3515 109.12C59.3515 107.392 59.8955 105.912 60.9835 104.68C62.0875 103.464 63.4075 102.856 64.9435 102.856C65.8075 102.856 66.5915 103.04 67.2955 103.408C68.0155 103.776 68.5675 104.264 68.9515 104.872H69.0475L68.9515 103.24V97.816H71.1595V115H69.0475V113.368H68.9515C68.5675 113.976 68.0155 114.464 67.2955 114.832C66.5915 115.2 65.8075 115.384 64.9435 115.384ZM78.2945 113.368C79.3825 113.368 80.2705 112.976 80.9585 112.192C81.6785 111.408 82.0385 110.384 82.0385 109.12C82.0385 107.888 81.6785 106.872 80.9585 106.072C80.2545 105.272 79.3665 104.872 78.2945 104.872C77.2385 104.872 76.3505 105.272 75.6305 106.072C74.9105 106.872 74.5505 107.888 74.5505 109.12C74.5505 110.368 74.9105 111.384 75.6305 112.168C76.3505 112.968 77.2385 113.368 78.2945 113.368ZM77.9345 115.384C76.3985 115.384 75.0785 114.776 73.9745 113.56C72.8865 112.328 72.3425 110.848 72.3425 109.12C72.3425 107.392 72.8865 105.912 73.9745 104.68C75.0785 103.464 76.3985 102.856 77.9345 102.856C78.7985 102.856 79.5825 103.04 80.2865 103.408C81.0065 103.776 81.5585 104.264 81.9425 104.872H82.0385L81.9425 103.24V97.816H84.1505V115H82.0385V113.368H81.9425C81.5585 113.976 81.0065 114.464 80.2865 114.832C79.5825 115.2 78.7985 115.384 77.9345 115.384ZM88.9786 99.184C88.9786 99.616 88.8266 99.984 88.5226 100.288C88.2186 100.592 87.8506 100.744 87.4186 100.744C86.9866 100.744 86.6186 100.592 86.3146 100.288C86.0106 99.984 85.8586 99.616 85.8586 99.184C85.8586 98.752 86.0106 98.384 86.3146 98.08C86.6186 97.776 86.9866 97.624 87.4186 97.624C87.8506 97.624 88.2186 97.776 88.5226 98.08C88.8266 98.384 88.9786 98.752 88.9786 99.184ZM88.5226 103.24V115H86.3146V103.24H88.5226ZM95.9348 115.384C94.1908 115.384 92.7428 114.792 91.5908 113.608C90.4548 112.392 89.8868 110.896 89.8868 109.12C89.8868 107.312 90.4548 105.816 91.5908 104.632C92.7428 103.448 94.1908 102.856 95.9348 102.856C97.1348 102.856 98.1828 103.16 99.0788 103.768C99.9748 104.36 100.647 105.184 101.095 106.24L99.0788 107.08C98.4548 105.608 97.3588 104.872 95.7908 104.872C94.7828 104.872 93.9108 105.28 93.1748 106.096C92.4548 106.912 92.0948 107.92 92.0948 109.12C92.0948 110.32 92.4548 111.328 93.1748 112.144C93.9108 112.96 94.7828 113.368 95.7908 113.368C97.4068 113.368 98.5428 112.632 99.1988 111.16L101.167 112C100.735 113.056 100.055 113.888 99.1268 114.496C98.2148 115.088 97.1508 115.384 95.9348 115.384ZM106.917 115.192C105.957 115.192 105.157 114.896 104.517 114.304C103.893 113.712 103.573 112.888 103.557 111.832V105.256H101.493V103.24H103.557V99.64H105.765V103.24H108.645V105.256H105.765V111.112C105.765 111.896 105.917 112.432 106.221 112.72C106.525 112.992 106.869 113.128 107.253 113.128C107.429 113.128 107.597 113.112 107.757 113.08C107.933 113.032 108.093 112.976 108.237 112.912L108.933 114.88C108.357 115.088 107.685 115.192 106.917 115.192ZM112.998 99.184C112.998 99.616 112.846 99.984 112.542 100.288C112.238 100.592 111.87 100.744 111.438 100.744C111.006 100.744 110.638 100.592 110.334 100.288C110.03 99.984 109.878 99.616 109.878 99.184C109.878 98.752 110.03 98.384 110.334 98.08C110.638 97.776 111.006 97.624 111.438 97.624C111.87 97.624 112.238 97.776 112.542 98.08C112.846 98.384 112.998 98.752 112.998 99.184ZM112.542 103.24V115H110.334V103.24H112.542ZM113.907 109.12C113.907 107.312 114.475 105.816 115.611 104.632C116.763 103.448 118.211 102.856 119.955 102.856C121.699 102.856 123.139 103.448 124.275 104.632C125.427 105.816 126.003 107.312 126.003 109.12C126.003 110.944 125.427 112.44 124.275 113.608C123.139 114.792 121.699 115.384 119.955 115.384C118.211 115.384 116.763 114.792 115.611 113.608C114.475 112.424 113.907 110.928 113.907 109.12ZM116.115 109.12C116.115 110.384 116.483 111.408 117.219 112.192C117.955 112.976 118.867 113.368 119.955 113.368C121.043 113.368 121.955 112.976 122.691 112.192C123.427 111.408 123.795 110.384 123.795 109.12C123.795 107.872 123.427 106.856 122.691 106.072C121.939 105.272 121.027 104.872 119.955 104.872C118.883 104.872 117.971 105.272 117.219 106.072C116.483 106.856 116.115 107.872 116.115 109.12ZM127.054 103.24H129.166V104.872H129.262C129.598 104.296 130.11 103.816 130.798 103.432C131.502 103.048 132.23 102.856 132.982 102.856C134.422 102.856 135.526 103.272 136.294 104.104C137.078 104.92 137.47 106.088 137.47 107.608V115H135.262V107.752C135.214 105.832 134.246 104.872 132.358 104.872C131.478 104.872 130.742 105.232 130.15 105.952C129.558 106.656 129.262 107.504 129.262 108.496V115H127.054V103.24Z" fill="#1C1149"/>
<defs>
<clipPath id="clip0_80_12267">
<rect x="130" y="16" width="40" height="40" rx="20" fill="white"/>
</clipPath>
</defs>
</svg>
