<svg width="186" height="187" viewBox="0 0 186 187" fill="none" xmlns="http://www.w3.org/2000/svg">
<path d="M50.4497 170.951C75.4342 191.036 111.058 191.036 136.043 170.951C142.396 165.844 148.536 160.342 154.432 154.447C160.328 148.551 165.829 142.41 170.936 136.057C191.021 111.073 191.021 75.4487 170.936 50.4643C165.829 44.1114 160.328 37.9707 154.432 32.0751C148.536 26.1794 142.396 20.678 136.043 15.571C111.058 -4.51401 75.4342 -4.51401 50.4497 15.571C44.0968 20.678 37.9562 26.1794 32.0605 32.0751C26.1648 37.9707 20.6635 44.1114 15.5564 50.4643C-4.52857 75.4487 -4.52857 111.073 15.5564 136.057C20.6635 142.41 26.1648 148.551 32.0605 154.447C37.9562 160.342 44.0968 165.844 50.4497 170.951Z" fill="#483F77"/>
<g clip-path="url(#clip0_80_12276)">
<path d="M57 46C51.48 46 47 50.48 47 56C47 61.52 51.48 66 57 66C62.52 66 67 61.52 67 56C67 50.48 62.52 46 57 46ZM57 64C52.58 64 49 60.42 49 56C49 51.58 52.58 48 57 48C61.42 48 65 51.58 65 56C65 60.42 61.42 64 57 64Z" fill="#E6DEFF"/>
<path d="M57 61C59.7614 61 62 58.7614 62 56C62 53.2386 59.7614 51 57 51C54.2386 51 52 53.2386 52 56C52 58.7614 54.2386 61 57 61Z" fill="#E6DEFF"/>
</g>
<path d="M85.5247 87.192C84.5647 87.192 83.7647 86.896 83.1247 86.304C82.5007 85.712 82.1807 84.888 82.1647 83.832V77.256H80.1007V75.24H82.1647V71.64H84.3727V75.24H87.2527V77.256H84.3727V83.112C84.3727 83.896 84.5247 84.432 84.8287 84.72C85.1327 84.992 85.4767 85.128 85.8607 85.128C86.0367 85.128 86.2047 85.112 86.3647 85.08C86.5407 85.032 86.7007 84.976 86.8447 84.912L87.5407 86.88C86.9647 87.088 86.2927 87.192 85.5247 87.192ZM90.8411 87H88.6331V75.24H90.7451V77.16H90.8411C91.0651 76.536 91.5211 76.008 92.2091 75.576C92.9131 75.128 93.6011 74.904 94.2731 74.904C94.9131 74.904 95.4571 75 95.9051 75.192L95.2331 77.328C94.9611 77.216 94.5291 77.16 93.9371 77.16C93.1051 77.16 92.3771 77.496 91.7531 78.168C91.1451 78.84 90.8411 79.624 90.8411 80.52V87ZM107.378 75.24L100.01 92.184H97.7302L100.466 86.256L95.6182 75.24H98.0182L101.522 83.688H101.57L104.978 75.24H107.378ZM51.1299 100.528L48.3219 108.28H54.0339L51.2259 100.528H51.1299ZM45.8979 115H43.4499L49.9299 97.816H52.4259L58.9059 115H56.4579L54.8019 110.344H47.5779L45.8979 115ZM62.4091 115H60.2011V97.816H62.4091V115ZM73.9784 115.192C73.0184 115.192 72.2184 114.896 71.5784 114.304C70.9544 113.712 70.6344 112.888 70.6184 111.832V105.256H68.5544V103.24H70.6184V99.64H72.8264V103.24H75.7064V105.256H72.8264V111.112C72.8264 111.896 72.9784 112.432 73.2824 112.72C73.5864 112.992 73.9304 113.128 74.3144 113.128C74.4904 113.128 74.6584 113.112 74.8184 113.08C74.9944 113.032 75.1544 112.976 75.2984 112.912L75.9944 114.88C75.4184 115.088 74.7464 115.192 73.9784 115.192ZM77.204 97.816H79.412V103.24L79.316 104.872H79.412C79.748 104.296 80.26 103.816 80.948 103.432C81.652 103.048 82.38 102.856 83.132 102.856C84.572 102.856 85.676 103.272 86.444 104.104C87.228 104.92 87.62 106.088 87.62 107.608V115H85.412V108.04C85.412 105.928 84.476 104.872 82.604 104.872C81.708 104.872 80.948 105.248 80.324 106C79.716 106.736 79.412 107.6 79.412 108.592V115H77.204V97.816ZM94.7718 115.384C93.0438 115.384 91.6198 114.792 90.4998 113.608C89.3798 112.424 88.8198 110.928 88.8198 109.12C88.8198 107.328 89.3638 105.84 90.4518 104.656C91.5398 103.456 92.9318 102.856 94.6278 102.856C96.3718 102.856 97.7558 103.424 98.7798 104.56C99.8198 105.68 100.34 107.256 100.34 109.288L100.316 109.528H91.0758C91.1078 110.68 91.4918 111.608 92.2278 112.312C92.9638 113.016 93.8438 113.368 94.8678 113.368C96.2758 113.368 97.3798 112.664 98.1798 111.256L100.148 112.216C99.6198 113.208 98.8838 113.984 97.9398 114.544C97.0118 115.104 95.9558 115.384 94.7718 115.384ZM91.2438 107.704H97.9878C97.9238 106.888 97.5878 106.216 96.9798 105.688C96.3878 105.144 95.5878 104.872 94.5798 104.872C93.7478 104.872 93.0278 105.128 92.4198 105.64C91.8278 106.152 91.4358 106.84 91.2438 107.704ZM103.847 115H101.639V103.24H103.751V105.16H103.847C104.071 104.536 104.527 104.008 105.215 103.576C105.919 103.128 106.607 102.904 107.279 102.904C107.919 102.904 108.463 103 108.911 103.192L108.239 105.328C107.967 105.216 107.535 105.16 106.943 105.16C106.111 105.16 105.383 105.496 104.759 106.168C104.151 106.84 103.847 107.624 103.847 108.52V115ZM110.777 111.4C110.777 111.976 111.017 112.456 111.497 112.84C111.993 113.224 112.569 113.416 113.225 113.416C114.153 113.416 114.977 113.072 115.697 112.384C116.433 111.696 116.801 110.888 116.801 109.96C116.113 109.416 115.153 109.144 113.921 109.144C113.025 109.144 112.273 109.36 111.665 109.792C111.073 110.224 110.777 110.76 110.777 111.4ZM113.633 102.856C115.265 102.856 116.553 103.296 117.497 104.176C118.441 105.04 118.913 106.232 118.913 107.752V115H116.801V113.368H116.705C115.793 114.712 114.577 115.384 113.057 115.384C111.761 115.384 110.673 115 109.793 114.232C108.929 113.464 108.497 112.504 108.497 111.352C108.497 110.136 108.953 109.168 109.865 108.448C110.793 107.728 112.025 107.368 113.561 107.368C114.873 107.368 115.953 107.608 116.801 108.088V107.584C116.801 106.816 116.497 106.168 115.889 105.64C115.281 105.096 114.569 104.824 113.753 104.824C112.521 104.824 111.545 105.344 110.825 106.384L108.881 105.16C109.953 103.624 111.537 102.856 113.633 102.856ZM126.443 113.368C127.499 113.368 128.387 112.968 129.107 112.168C129.827 111.384 130.187 110.368 130.187 109.12C130.187 107.888 129.827 106.872 129.107 106.072C128.387 105.272 127.499 104.872 126.443 104.872C125.371 104.872 124.475 105.272 123.755 106.072C123.051 106.872 122.699 107.888 122.699 109.12C122.699 110.368 123.051 111.392 123.755 112.192C124.475 112.976 125.371 113.368 126.443 113.368ZM126.803 115.384C125.939 115.384 125.147 115.2 124.427 114.832C123.723 114.464 123.179 113.976 122.795 113.368H122.699L122.795 115V120.184H120.587V103.24H122.699V104.872H122.795C123.179 104.264 123.723 103.776 124.427 103.408C125.147 103.04 125.939 102.856 126.803 102.856C128.355 102.856 129.667 103.464 130.739 104.68C131.843 105.912 132.395 107.392 132.395 109.12C132.395 110.864 131.843 112.344 130.739 113.56C129.667 114.776 128.355 115.384 126.803 115.384ZM143.741 103.24L136.373 120.184H134.093L136.829 114.256L131.981 103.24H134.381L137.885 111.688H137.933L141.341 103.24H143.741Z" fill="#E6DEFF"/>
<defs>
<clipPath id="clip0_80_12276">
<rect x="37" y="36" width="40" height="40" rx="20" fill="white"/>
</clipPath>
</defs>
</svg>
