<svg width="512" height="512" viewBox="0 0 512 512" fill="none" xmlns="http://www.w3.org/2000/svg">
    <path d="M0 8C0 3.58172 3.58172 0 8 0H504C508.418 0 512 3.58172 512 8V504C512 508.418 508.418 512 504 512H8C3.58172 512 0 508.418 0 504V8Z" fill="white"/>
    <svg xmlns="http://www.w3.org/2000/svg" viewBox="0 0 53 53" shape-rendering="crispEdges" height="512" width="512" x="0" y="0"><path stroke="#000000" d="M4 4.5h7m1 0h2m1 0h1m2 0h3m1 0h2m4 0h1m2 0h4m5 0h1m1 0h7M4 5.5h1m5 0h1m1 0h2m9 0h2m1 0h1m2 0h3m5 0h1m1 0h1m2 0h1m5 0h1M4 6.5h1m1 0h3m1 0h1m1 0h2m3 0h1m3 0h6m2 0h2m2 0h1m1 0h1m1 0h1m1 0h1m2 0h1m1 0h3m1 0h1M4 7.5h1m1 0h3m1 0h1m2 0h2m2 0h3m1 0h3m2 0h1m2 0h1m2 0h2m3 0h1m1 0h2m1 0h1m1 0h3m1 0h1M4 8.5h1m1 0h3m1 0h1m3 0h3m1 0h1m1 0h2m1 0h6m3 0h1m1 0h2m2 0h3m1 0h1m1 0h3m1 0h1M4 9.5h1m5 0h1m1 0h1m3 0h1m2 0h1m1 0h2m1 0h1m3 0h6m8 0h1m5 0h1M4 10.5h7m1 0h1m1 0h1m1 0h1m1 0h1m1 0h1m1 0h1m1 0h1m1 0h1m1 0h1m1 0h1m1 0h1m1 0h1m1 0h1m1 0h1m1 0h1m1 0h7M12 11.5h1m2 0h4m1 0h5m3 0h1m3 0h1m3 0h1m2 0h2M6 12.5h3m1 0h1m1 0h1m1 0h1m2 0h3m2 0h1m1 0h5m1 0h2m2 0h2m3 0h1m1 0h3m2 0h3M6 13.5h2m4 0h3m3 0h4m1 0h1m1 0h1m4 0h3m1 0h1m1 0h2m2 0h1m2 0h1m3 0h2M5 14.5h6m1 0h1m1 0h1m1 0h2m2 0h1m2 0h2m1 0h3m1 0h3m2 0h1m1 0h2m1 0h3m2 0h2M8 15.5h2m1 0h2m2 0h4m3 0h2m1 0h2m1 0h3m1 0h1m1 0h3m2 0h2m1 0h5M4 16.5h2m2 0h1m1 0h7m11 0h1m1 0h2m1 0h1m3 0h1m4 0h2m3 0h1M5 17.5h1m2 0h2m4 0h2m1 0h1m4 0h3m1 0h4m1 0h2m1 0h1m5 0h1m2 0h1m1 0h2m1 0h1M6 18.5h1m2 0h4m2 0h1m2 0h3m1 0h1m2 0h1m1 0h4m1 0h2m1 0h1m1 0h2m1 0h1m1 0h1m2 0h3M5 19.5h4m2 0h1m1 0h1m4 0h1m3 0h2m2 0h8m2 0h1m1 0h1m1 0h3m1 0h5M4 20.5h1m3 0h5m1 0h3m1 0h4m2 0h4m4 0h1m8 0h3m1 0h1m1 0h1M4 21.5h2m1 0h1m1 0h1m2 0h1m1 0h1m4 0h2m3 0h1m1 0h2m1 0h1m3 0h1m1 0h1m1 0h1m1 0h3m3 0h2m1 0h1M4 22.5h1m1 0h1m1 0h3m1 0h1m2 0h5m1 0h3m3 0h1m1 0h1m2 0h1m1 0h2m2 0h1m1 0h4m2 0h2M7 23.5h2m2 0h3m4 0h2m1 0h2m2 0h5m2 0h1m1 0h4m2 0h2m1 0h4m1 0h1M4 24.5h2m1 0h6m1 0h1m1 0h1m6 0h6m2 0h1m1 0h3m2 0h7m2 0h2M4 25.5h3m1 0h1m3 0h1m2 0h4m1 0h1m3 0h1m3 0h1m3 0h1m1 0h1m2 0h1m1 0h2m3 0h3m1 0h1M5 26.5h1m2 0h1m1 0h1m1 0h1m2 0h2m3 0h1m1 0h1m1 0h1m1 0h1m1 0h1m1 0h1m1 0h3m1 0h1m1 0h3m1 0h1m1 0h4M4 27.5h5m3 0h7m4 0h2m3 0h1m3 0h2m3 0h1m2 0h1m3 0h1m1 0h1M8 28.5h7m2 0h2m1 0h1m1 0h8m1 0h1m1 0h5m1 0h7m1 0h2M5 29.5h5m2 0h1m1 0h2m1 0h2m4 0h3m1 0h1m2 0h1m1 0h1m1 0h1m1 0h2m1 0h1m3 0h1m1 0h4M5 30.5h1m2 0h1m1 0h2m2 0h1m2 0h1m1 0h1m1 0h1m4 0h6m2 0h3m1 0h3m2 0h3M4 31.5h2m1 0h1m3 0h1m2 0h1m5 0h6m2 0h3m1 0h2m2 0h1m1 0h2m1 0h2m3 0h1m1 0h1M6 32.5h1m1 0h4m1 0h2m1 0h2m1 0h2m1 0h4m2 0h1m1 0h1m1 0h1m2 0h1m1 0h2m2 0h2m1 0h2M5 33.5h1m1 0h2m2 0h2m1 0h1m1 0h3m3 0h2m6 0h1m2 0h3m3 0h3m1 0h1m2 0h3M5 34.5h1m1 0h4m1 0h3m2 0h1m1 0h4m1 0h2m5 0h2m1 0h5m1 0h1m2 0h1m1 0h2M7 35.5h1m1 0h1m7 0h1m2 0h1m1 0h3m1 0h2m1 0h2m2 0h1m2 0h2m1 0h1m1 0h3m2 0h2M4 36.5h1m1 0h1m1 0h6m7 0h1m2 0h2m1 0h3m2 0h2m1 0h1m8 0h2m1 0h2M8 37.5h2m1 0h2m2 0h1m3 0h2m1 0h1m2 0h1m2 0h4m2 0h3m3 0h4m3 0h2M8 38.5h1m1 0h3m1 0h3m1 0h1m1 0h6m1 0h1m6 0h1m3 0h2m3 0h1m2 0h1M5 39.5h4m2 0h2m3 0h1m1 0h2m3 0h2m1 0h2m1 0h3m2 0h1m1 0h11m1 0h1M4 40.5h1m2 0h2m1 0h6m7 0h6m1 0h2m1 0h3m1 0h1m2 0h6m1 0h1M12 41.5h1m1 0h2m1 0h1m2 0h2m2 0h1m3 0h1m1 0h1m1 0h1m1 0h1m4 0h2m3 0h3m1 0h1M4 42.5h7m3 0h1m1 0h1m1 0h1m2 0h1m1 0h2m1 0h1m1 0h1m1 0h2m1 0h1m1 0h1m1 0h4m1 0h1m1 0h3M4 43.5h1m5 0h1m2 0h1m3 0h2m1 0h1m2 0h2m3 0h1m3 0h6m1 0h2m3 0h5M4 44.5h1m1 0h3m1 0h1m1 0h1m1 0h2m1 0h1m3 0h1m1 0h6m2 0h5m1 0h2m1 0h6m1 0h2M4 45.5h1m1 0h3m1 0h1m1 0h1m1 0h1m1 0h1m1 0h2m4 0h2m5 0h2m2 0h1m1 0h1m1 0h1m1 0h2m1 0h5M4 46.5h1m1 0h3m1 0h1m1 0h3m2 0h2m1 0h1m1 0h1m2 0h2m1 0h1m1 0h2m2 0h2m1 0h7m1 0h1M4 47.5h1m5 0h1m2 0h5m6 0h3m1 0h4m5 0h4m5 0h1M4 48.5h7m2 0h3m1 0h1m2 0h2m1 0h1m1 0h2m3 0h2m1 0h2m2 0h1m1 0h2m1 0h4m1 0h1"/></svg>

    <rect x="207.69811320754718" y="207.69811320754718" width="96.60377358490565" height="96.60377358490565" fill="black" stroke="white" stroke-width="10.160377358490566"/>
    <svg x="207.69811320754718" y="207.69811320754718" width="96.60377358490565" height="96.60377358490565" viewBox="0 0 116 116" fill="none" xmlns="http://www.w3.org/2000/svg">
      <path d="M63.9114 35.4964L52.1135 35.4964L30.6671 76.3932L39.9023 81.2706L58.0329 46.7391L76.1169 81.2829L85.333 76.3847L63.9114 35.4964Z" fill="white"/>
    </svg>
  </svg>